<svg width="410" height="410" viewBox="0 0 410 410" fill="none" xmlns="http://www.w3.org/2000/svg">
<g id="info-circle">
<circle id="circle" cx="205" cy="205" r="202.5" fill="#6AD7CA" stroke="white" stroke-width="5"/>
<path id="i" d="M190.234 307V166.375H228.203V307H190.234ZM135.109 307V271.844H193.047V307H135.109ZM225.391 307V271.844H272.359V307H225.391ZM143.547 193.094V157.938H228.203V193.094H143.547ZM207.531 137.828C200.312 137.828 194.453 135.578 189.953 131.078C185.453 126.578 183.203 120.719 183.203 113.5C183.203 106.281 185.453 100.422 189.953 95.9219C194.453 91.4219 200.312 89.1719 207.531 89.1719C214.75 89.1719 220.609 91.4219 225.109 95.9219C229.609 100.422 231.859 106.281 231.859 113.5C231.859 120.719 229.609 126.578 225.109 131.078C220.609 135.578 214.75 137.828 207.531 137.828Z" fill="white"/>
</g>
</svg>
