<svg id="bg-waves" viewBox="0 0 960 540" width="960" height="540" xmlns="http://www.w3.org/2000/svg" xmlns:xlink="http://www.w3.org/1999/xlink" version="1.1">
    <path d="M0 304L8.8 301C17.7 298 35.3 292 53.2 296C71 300 89 314 106.8 309.2C124.7 304.3 142.3 280.7 160 272.2C177.7 263.7 195.3 270.3 213.2 273.3C231 276.3 249 275.7 266.8 282.8C284.7 290 302.3 305 320 315C337.7 325 355.3 330 373.2 327.3C391 324.7 409 314.3 426.8 318.2C444.7 322 462.3 340 480 345.8C497.7 351.7 515.3 345.3 533.2 346C551 346.7 569 354.3 586.8 354.5C604.7 354.7 622.3 347.3 640 337.3C657.7 327.3 675.3 314.7 693.2 317.3C711 320 729 338 746.8 336.8C764.7 335.7 782.3 315.3 800 312C817.7 308.7 835.3 322.3 853.2 317C871 311.7 889 287.3 906.8 284.5C924.7 281.7 942.3 300.3 951.2 309.7L960 319L960 541L951.2 541C942.3 541 924.7 541 906.8 541C889 541 871 541 853.2 541C835.3 541 817.7 541 800 541C782.3 541 764.7 541 746.8 541C729 541 711 541 693.2 541C675.3 541 657.7 541 640 541C622.3 541 604.7 541 586.8 541C569 541 551 541 533.2 541C515.3 541 497.7 541 480 541C462.3 541 444.7 541 426.8 541C409 541 391 541 373.2 541C355.3 541 337.7 541 320 541C302.3 541 284.7 541 266.8 541C249 541 231 541 213.2 541C195.3 541 177.7 541 160 541C142.3 541 124.7 541 106.8 541C89 541 71 541 53.2 541C35.3 541 17.7 541 8.8 541L0 541Z" fill="#00975b"/>
    <path d="M0 354L8.8 342.8C17.7 331.7 35.3 309.3 53.2 307.8C71 306.3 89 325.7 106.8 339.8C124.7 354 142.3 363 160 357.7C177.7 352.3 195.3 332.7 213.2 321.3C231 310 249 307 266.8 305.8C284.7 304.7 302.3 305.3 320 314.8C337.7 324.3 355.3 342.7 373.2 338.3C391 334 409 307 426.8 301.7C444.7 296.3 462.3 312.7 480 320.8C497.7 329 515.3 329 533.2 324.2C551 319.3 569 309.7 586.8 300.7C604.7 291.7 622.3 283.3 640 288.5C657.7 293.7 675.3 312.3 693.2 321.5C711 330.7 729 330.3 746.8 335.8C764.7 341.3 782.3 352.7 800 348.5C817.7 344.3 835.3 324.7 853.2 314.5C871 304.3 889 303.7 906.8 299.7C924.7 295.7 942.3 288.3 951.2 284.7L960 281L960 541L951.2 541C942.3 541 924.7 541 906.8 541C889 541 871 541 853.2 541C835.3 541 817.7 541 800 541C782.3 541 764.7 541 746.8 541C729 541 711 541 693.2 541C675.3 541 657.7 541 640 541C622.3 541 604.7 541 586.8 541C569 541 551 541 533.2 541C515.3 541 497.7 541 480 541C462.3 541 444.7 541 426.8 541C409 541 391 541 373.2 541C355.3 541 337.7 541 320 541C302.3 541 284.7 541 266.8 541C249 541 231 541 213.2 541C195.3 541 177.7 541 160 541C142.3 541 124.7 541 106.8 541C89 541 71 541 53.2 541C35.3 541 17.7 541 8.8 541L0 541Z" fill="#028b56"/>
    <path d="M0 374L8.8 368.3C17.7 362.7 35.3 351.3 53.2 353.7C71 356 89 372 106.8 369.8C124.7 367.7 142.3 347.3 160 342.3C177.7 337.3 195.3 347.7 213.2 356.3C231 365 249 372 266.8 376.7C284.7 381.3 302.3 383.7 320 380.3C337.7 377 355.3 368 373.2 368.5C391 369 409 379 426.8 369.8C444.7 360.7 462.3 332.3 480 321.2C497.7 310 515.3 316 533.2 322.7C551 329.3 569 336.7 586.8 340C604.7 343.3 622.3 342.7 640 345.8C657.7 349 675.3 356 693.2 354.5C711 353 729 343 746.8 345C764.7 347 782.3 361 800 368.8C817.7 376.7 835.3 378.3 853.2 370C871 361.7 889 343.3 906.8 345.3C924.7 347.3 942.3 369.7 951.2 380.8L960 392L960 541L951.2 541C942.3 541 924.7 541 906.8 541C889 541 871 541 853.2 541C835.3 541 817.7 541 800 541C782.3 541 764.7 541 746.8 541C729 541 711 541 693.2 541C675.3 541 657.7 541 640 541C622.3 541 604.7 541 586.8 541C569 541 551 541 533.2 541C515.3 541 497.7 541 480 541C462.3 541 444.7 541 426.8 541C409 541 391 541 373.2 541C355.3 541 337.7 541 320 541C302.3 541 284.7 541 266.8 541C249 541 231 541 213.2 541C195.3 541 177.7 541 160 541C142.3 541 124.7 541 106.8 541C89 541 71 541 53.2 541C35.3 541 17.7 541 8.8 541L0 541Z" fill="#067f50"/>
    <path d="M0 383L8.8 378C17.7 373 35.3 363 53.2 359.7C71 356.3 89 359.7 106.8 354.3C124.7 349 142.3 335 160 330C177.7 325 195.3 329 213.2 341C231 353 249 373 266.8 378.2C284.7 383.3 302.3 373.7 320 364.8C337.7 356 355.3 348 373.2 352.8C391 357.7 409 375.3 426.8 380.5C444.7 385.7 462.3 378.3 480 366.7C497.7 355 515.3 339 533.2 334.5C551 330 569 337 586.8 338C604.7 339 622.3 334 640 338C657.7 342 675.3 355 693.2 360.2C711 365.3 729 362.7 746.8 357C764.7 351.3 782.3 342.7 800 338.5C817.7 334.3 835.3 334.7 853.2 333C871 331.3 889 327.7 906.8 326C924.7 324.3 942.3 324.7 951.2 324.8L960 325L960 541L951.2 541C942.3 541 924.7 541 906.8 541C889 541 871 541 853.2 541C835.3 541 817.7 541 800 541C782.3 541 764.7 541 746.8 541C729 541 711 541 693.2 541C675.3 541 657.7 541 640 541C622.3 541 604.7 541 586.8 541C569 541 551 541 533.2 541C515.3 541 497.7 541 480 541C462.3 541 444.7 541 426.8 541C409 541 391 541 373.2 541C355.3 541 337.7 541 320 541C302.3 541 284.7 541 266.8 541C249 541 231 541 213.2 541C195.3 541 177.7 541 160 541C142.3 541 124.7 541 106.8 541C89 541 71 541 53.2 541C35.3 541 17.7 541 8.8 541L0 541Z" fill="#0a734b"/>
    <path d="M0 354L8.8 361.2C17.7 368.3 35.3 382.7 53.2 381.7C71 380.7 89 364.3 106.8 357.8C124.7 351.3 142.3 354.7 160 360.8C177.7 367 195.3 376 213.2 381.5C231 387 249 389 266.8 392.7C284.7 396.3 302.3 401.7 320 396.3C337.7 391 355.3 375 373.2 376.2C391 377.3 409 395.7 426.8 394C444.7 392.3 462.3 370.7 480 359.7C497.7 348.7 515.3 348.3 533.2 359.8C551 371.3 569 394.7 586.8 400C604.7 405.3 622.3 392.7 640 387.3C657.7 382 675.3 384 693.2 384.8C711 385.7 729 385.3 746.8 383.3C764.7 381.3 782.3 377.7 800 375C817.7 372.3 835.3 370.7 853.2 371C871 371.3 889 373.7 906.8 372.5C924.7 371.3 942.3 366.7 951.2 364.3L960 362L960 541L951.2 541C942.3 541 924.7 541 906.8 541C889 541 871 541 853.2 541C835.3 541 817.7 541 800 541C782.3 541 764.7 541 746.8 541C729 541 711 541 693.2 541C675.3 541 657.7 541 640 541C622.3 541 604.7 541 586.8 541C569 541 551 541 533.2 541C515.3 541 497.7 541 480 541C462.3 541 444.7 541 426.8 541C409 541 391 541 373.2 541C355.3 541 337.7 541 320 541C302.3 541 284.7 541 266.8 541C249 541 231 541 213.2 541C195.3 541 177.7 541 160 541C142.3 541 124.7 541 106.8 541C89 541 71 541 53.2 541C35.3 541 17.7 541 8.8 541L0 541Z" fill="#0d6845"/>
    <path d="M0 402L8.8 405.2C17.7 408.3 35.3 414.7 53.2 410.3C71 406 89 391 106.8 392.8C124.7 394.7 142.3 413.3 160 419.5C177.7 425.7 195.3 419.3 213.2 418.3C231 417.3 249 421.7 266.8 424.3C284.7 427 302.3 428 320 422.5C337.7 417 355.3 405 373.2 399.8C391 394.7 409 396.3 426.8 401.2C444.7 406 462.3 414 480 411.5C497.7 409 515.3 396 533.2 395.8C551 395.7 569 408.3 586.8 415C604.7 421.7 622.3 422.3 640 418.3C657.7 414.3 675.3 405.7 693.2 405C711 404.3 729 411.7 746.8 412.8C764.7 414 782.3 409 800 408C817.7 407 835.3 410 853.2 413.2C871 416.3 889 419.7 906.8 414.3C924.7 409 942.3 395 951.2 388L960 381L960 541L951.2 541C942.3 541 924.7 541 906.8 541C889 541 871 541 853.2 541C835.3 541 817.7 541 800 541C782.3 541 764.7 541 746.8 541C729 541 711 541 693.2 541C675.3 541 657.7 541 640 541C622.3 541 604.7 541 586.8 541C569 541 551 541 533.2 541C515.3 541 497.7 541 480 541C462.3 541 444.7 541 426.8 541C409 541 391 541 373.2 541C355.3 541 337.7 541 320 541C302.3 541 284.7 541 266.8 541C249 541 231 541 213.2 541C195.3 541 177.7 541 160 541C142.3 541 124.7 541 106.8 541C89 541 71 541 53.2 541C35.3 541 17.7 541 8.8 541L0 541Z" fill="#105d3f"/>
    <path d="M0 398L8.8 397.2C17.7 396.3 35.3 394.7 53.2 393.3C71 392 89 391 106.8 391.5C124.7 392 142.3 394 160 401.5C177.7 409 195.3 422 213.2 424.7C231 427.3 249 419.7 266.8 421.8C284.7 424 302.3 436 320 437.7C337.7 439.3 355.3 430.7 373.2 429.7C391 428.7 409 435.3 426.8 437.8C444.7 440.3 462.3 438.7 480 438.7C497.7 438.7 515.3 440.3 533.2 439.8C551 439.3 569 436.7 586.8 436.2C604.7 435.7 622.3 437.3 640 440.2C657.7 443 675.3 447 693.2 443.3C711 439.7 729 428.3 746.8 423.5C764.7 418.7 782.3 420.3 800 423.2C817.7 426 835.3 430 853.2 425.3C871 420.7 889 407.3 906.8 400.8C924.7 394.3 942.3 394.7 951.2 394.8L960 395L960 541L951.2 541C942.3 541 924.7 541 906.8 541C889 541 871 541 853.2 541C835.3 541 817.7 541 800 541C782.3 541 764.7 541 746.8 541C729 541 711 541 693.2 541C675.3 541 657.7 541 640 541C622.3 541 604.7 541 586.8 541C569 541 551 541 533.2 541C515.3 541 497.7 541 480 541C462.3 541 444.7 541 426.8 541C409 541 391 541 373.2 541C355.3 541 337.7 541 320 541C302.3 541 284.7 541 266.8 541C249 541 231 541 213.2 541C195.3 541 177.7 541 160 541C142.3 541 124.7 541 106.8 541C89 541 71 541 53.2 541C35.3 541 17.7 541 8.8 541L0 541Z" fill="#125239"/>
    <path d="M0 415L8.8 419C17.7 423 35.3 431 53.2 437.8C71 444.7 89 450.3 106.8 449.2C124.7 448 142.3 440 160 437.3C177.7 434.7 195.3 437.3 213.2 443.3C231 449.3 249 458.7 266.8 460.5C284.7 462.3 302.3 456.7 320 447.5C337.7 438.3 355.3 425.7 373.2 428.7C391 431.7 409 450.3 426.8 458.2C444.7 466 462.3 463 480 461.7C497.7 460.3 515.3 460.7 533.2 453.8C551 447 569 433 586.8 429.7C604.7 426.3 622.3 433.7 640 439.5C657.7 445.3 675.3 449.7 693.2 445.8C711 442 729 430 746.8 428.5C764.7 427 782.3 436 800 436.8C817.7 437.7 835.3 430.3 853.2 432.8C871 435.3 889 447.7 906.8 451C924.7 454.3 942.3 448.7 951.2 445.8L960 443L960 541L951.2 541C942.3 541 924.7 541 906.8 541C889 541 871 541 853.2 541C835.3 541 817.7 541 800 541C782.3 541 764.7 541 746.8 541C729 541 711 541 693.2 541C675.3 541 657.7 541 640 541C622.3 541 604.7 541 586.8 541C569 541 551 541 533.2 541C515.3 541 497.7 541 480 541C462.3 541 444.7 541 426.8 541C409 541 391 541 373.2 541C355.3 541 337.7 541 320 541C302.3 541 284.7 541 266.8 541C249 541 231 541 213.2 541C195.3 541 177.7 541 160 541C142.3 541 124.7 541 106.8 541C89 541 71 541 53.2 541C35.3 541 17.7 541 8.8 541L0 541Z" fill="#134733"/>
    <path d="M0 471L8.8 471C17.7 471 35.3 471 53.2 472.7C71 474.3 89 477.7 106.8 472.3C124.7 467 142.3 453 160 450.5C177.7 448 195.3 457 213.2 458.3C231 459.7 249 453.3 266.8 448.7C284.7 444 302.3 441 320 438.7C337.7 436.3 355.3 434.7 373.2 441.3C391 448 409 463 426.8 464.7C444.7 466.3 462.3 454.7 480 455.2C497.7 455.7 515.3 468.3 533.2 473.7C551 479 569 477 586.8 472.7C604.7 468.3 622.3 461.7 640 460.8C657.7 460 675.3 465 693.2 463.2C711 461.3 729 452.7 746.8 450C764.7 447.3 782.3 450.7 800 451.5C817.7 452.3 835.3 450.7 853.2 449.3C871 448 889 447 906.8 445.5C924.7 444 942.3 442 951.2 441L960 440L960 541L951.2 541C942.3 541 924.7 541 906.8 541C889 541 871 541 853.2 541C835.3 541 817.7 541 800 541C782.3 541 764.7 541 746.8 541C729 541 711 541 693.2 541C675.3 541 657.7 541 640 541C622.3 541 604.7 541 586.8 541C569 541 551 541 533.2 541C515.3 541 497.7 541 480 541C462.3 541 444.7 541 426.8 541C409 541 391 541 373.2 541C355.3 541 337.7 541 320 541C302.3 541 284.7 541 266.8 541C249 541 231 541 213.2 541C195.3 541 177.7 541 160 541C142.3 541 124.7 541 106.8 541C89 541 71 541 53.2 541C35.3 541 17.7 541 8.8 541L0 541Z" fill="#143c2c"/>
    <path d="M0 496L8.8 495C17.7 494 35.3 492 53.2 486C71 480 89 470 106.8 467.7C124.7 465.3 142.3 470.7 160 471C177.7 471.3 195.3 466.7 213.2 467.3C231 468 249 474 266.8 475.5C284.7 477 302.3 474 320 471.3C337.7 468.7 355.3 466.3 373.2 464.8C391 463.3 409 462.7 426.8 466C444.7 469.3 462.3 476.7 480 479.8C497.7 483 515.3 482 533.2 477.5C551 473 569 465 586.8 464.3C604.7 463.7 622.3 470.3 640 472.3C657.7 474.3 675.3 471.7 693.2 469.8C711 468 729 467 746.8 469.3C764.7 471.7 782.3 477.3 800 480C817.7 482.7 835.3 482.3 853.2 481.5C871 480.7 889 479.3 906.8 478.7C924.7 478 942.3 478 951.2 478L960 478L960 541L951.2 541C942.3 541 924.7 541 906.8 541C889 541 871 541 853.2 541C835.3 541 817.7 541 800 541C782.3 541 764.7 541 746.8 541C729 541 711 541 693.2 541C675.3 541 657.7 541 640 541C622.3 541 604.7 541 586.8 541C569 541 551 541 533.2 541C515.3 541 497.7 541 480 541C462.3 541 444.7 541 426.8 541C409 541 391 541 373.2 541C355.3 541 337.7 541 320 541C302.3 541 284.7 541 266.8 541C249 541 231 541 213.2 541C195.3 541 177.7 541 160 541C142.3 541 124.7 541 106.8 541C89 541 71 541 53.2 541C35.3 541 17.7 541 8.8 541L0 541Z" fill="#143226"/>
    <path d="M0 501L8.8 500.3C17.7 499.7 35.3 498.3 53.2 497.3C71 496.3 89 495.7 106.8 493.8C124.7 492 142.3 489 160 492C177.7 495 195.3 504 213.2 504.2C231 504.3 249 495.7 266.8 492.7C284.7 489.7 302.3 492.3 320 495.7C337.7 499 355.3 503 373.2 501.3C391 499.7 409 492.3 426.8 490.8C444.7 489.3 462.3 493.7 480 496.5C497.7 499.3 515.3 500.7 533.2 500.3C551 500 569 498 586.8 496.8C604.7 495.7 622.3 495.3 640 493.7C657.7 492 675.3 489 693.2 487.5C711 486 729 486 746.8 485.3C764.7 484.7 782.3 483.3 800 483.8C817.7 484.3 835.3 486.7 853.2 486C871 485.3 889 481.7 906.8 481.7C924.7 481.7 942.3 485.3 951.2 487.2L960 489L960 541L951.2 541C942.3 541 924.7 541 906.8 541C889 541 871 541 853.2 541C835.3 541 817.7 541 800 541C782.3 541 764.7 541 746.8 541C729 541 711 541 693.2 541C675.3 541 657.7 541 640 541C622.3 541 604.7 541 586.8 541C569 541 551 541 533.2 541C515.3 541 497.7 541 480 541C462.3 541 444.7 541 426.8 541C409 541 391 541 373.2 541C355.3 541 337.7 541 320 541C302.3 541 284.7 541 266.8 541C249 541 231 541 213.2 541C195.3 541 177.7 541 160 541C142.3 541 124.7 541 106.8 541C89 541 71 541 53.2 541C35.3 541 17.7 541 8.8 541L0 541Z" fill="#13281f"/>
    <path d="M0 500L8.8 503.2C17.7 506.3 35.3 512.7 53.2 513.7C71 514.7 89 510.3 106.8 509.5C124.7 508.7 142.3 511.3 160 513.8C177.7 516.3 195.3 518.7 213.2 516.7C231 514.7 249 508.3 266.8 505.7C284.7 503 302.3 504 320 506C337.7 508 355.3 511 373.2 512.5C391 514 409 514 426.8 512.2C444.7 510.3 462.3 506.7 480 506.8C497.7 507 515.3 511 533.2 511.5C551 512 569 509 586.8 506.5C604.7 504 622.3 502 640 502C657.7 502 675.3 504 693.2 505.2C711 506.3 729 506.7 746.8 506.7C764.7 506.7 782.3 506.3 800 505C817.7 503.7 835.3 501.3 853.2 501.7C871 502 889 505 906.8 506.7C924.7 508.3 942.3 508.7 951.2 508.8L960 509L960 541L951.2 541C942.3 541 924.7 541 906.8 541C889 541 871 541 853.2 541C835.3 541 817.7 541 800 541C782.3 541 764.7 541 746.8 541C729 541 711 541 693.2 541C675.3 541 657.7 541 640 541C622.3 541 604.7 541 586.8 541C569 541 551 541 533.2 541C515.3 541 497.7 541 480 541C462.3 541 444.7 541 426.8 541C409 541 391 541 373.2 541C355.3 541 337.7 541 320 541C302.3 541 284.7 541 266.8 541C249 541 231 541 213.2 541C195.3 541 177.7 541 160 541C142.3 541 124.7 541 106.8 541C89 541 71 541 53.2 541C35.3 541 17.7 541 8.8 541L0 541Z" fill="#121e19"/>
</svg>