<svg id="visual" viewBox="0 0 960 540" width="960" height="540" xmlns="http://www.w3.org/2000/svg" xmlns:xlink="http://www.w3.org/1999/xlink" version="1.1"><path d="M0 305L14.5 318.3C29 331.7 58 358.3 87.2 356.7C116.3 355 145.7 325 174.8 328.8C204 332.7 233 370.3 262 388.8C291 407.3 320 406.7 349 390.2C378 373.7 407 341.3 436.2 326C465.3 310.7 494.7 312.3 523.8 330.7C553 349 582 384 611 394.8C640 405.7 669 392.3 698 387.2C727 382 756 385 785.2 378.5C814.3 372 843.7 356 872.8 349.2C902 342.3 931 344.7 945.5 345.8L960 347L960 541L945.5 541C931 541 902 541 872.8 541C843.7 541 814.3 541 785.2 541C756 541 727 541 698 541C669 541 640 541 611 541C582 541 553 541 523.8 541C494.7 541 465.3 541 436.2 541C407 541 378 541 349 541C320 541 291 541 262 541C233 541 204 541 174.8 541C145.7 541 116.3 541 87.2 541C58 541 29 541 14.5 541L0 541Z" fill="#e97c08"></path><path d="M0 386L14.5 376.2C29 366.3 58 346.7 87.2 351C116.3 355.3 145.7 383.7 174.8 389.7C204 395.7 233 379.3 262 368.8C291 358.3 320 353.7 349 363.8C378 374 407 399 436.2 390.7C465.3 382.3 494.7 340.7 523.8 329.7C553 318.7 582 338.3 611 357.3C640 376.3 669 394.7 698 407.3C727 420 756 427 785.2 427.2C814.3 427.3 843.7 420.7 872.8 404.5C902 388.3 931 362.7 945.5 349.8L960 337L960 541L945.5 541C931 541 902 541 872.8 541C843.7 541 814.3 541 785.2 541C756 541 727 541 698 541C669 541 640 541 611 541C582 541 553 541 523.8 541C494.7 541 465.3 541 436.2 541C407 541 378 541 349 541C320 541 291 541 262 541C233 541 204 541 174.8 541C145.7 541 116.3 541 87.2 541C58 541 29 541 14.5 541L0 541Z" fill="#e77018"></path><path d="M0 423L14.5 425C29 427 58 431 87.2 428.2C116.3 425.3 145.7 415.7 174.8 408.2C204 400.7 233 395.3 262 384.3C291 373.3 320 356.7 349 357C378 357.3 407 374.7 436.2 377.7C465.3 380.7 494.7 369.3 523.8 378.2C553 387 582 416 611 415.7C640 415.3 669 385.7 698 372.2C727 358.7 756 361.3 785.2 360C814.3 358.7 843.7 353.3 872.8 367.5C902 381.7 931 415.3 945.5 432.2L960 449L960 541L945.5 541C931 541 902 541 872.8 541C843.7 541 814.3 541 785.2 541C756 541 727 541 698 541C669 541 640 541 611 541C582 541 553 541 523.8 541C494.7 541 465.3 541 436.2 541C407 541 378 541 349 541C320 541 291 541 262 541C233 541 204 541 174.8 541C145.7 541 116.3 541 87.2 541C58 541 29 541 14.5 541L0 541Z" fill="#e36422"></path><path d="M0 421L14.5 422C29 423 58 425 87.2 427.8C116.3 430.7 145.7 434.3 174.8 425.8C204 417.3 233 396.7 262 380.8C291 365 320 354 349 350.2C378 346.3 407 349.7 436.2 367C465.3 384.3 494.7 415.7 523.8 434.2C553 452.7 582 458.3 611 460.3C640 462.3 669 460.7 698 445.7C727 430.7 756 402.3 785.2 395C814.3 387.7 843.7 401.3 872.8 401C902 400.7 931 386.3 945.5 379.2L960 372L960 541L945.5 541C931 541 902 541 872.8 541C843.7 541 814.3 541 785.2 541C756 541 727 541 698 541C669 541 640 541 611 541C582 541 553 541 523.8 541C494.7 541 465.3 541 436.2 541C407 541 378 541 349 541C320 541 291 541 262 541C233 541 204 541 174.8 541C145.7 541 116.3 541 87.2 541C58 541 29 541 14.5 541L0 541Z" fill="#df5829"></path><path d="M0 412L14.5 416.7C29 421.3 58 430.7 87.2 439.8C116.3 449 145.7 458 174.8 455.8C204 453.7 233 440.3 262 435.8C291 431.3 320 435.7 349 427.8C378 420 407 400 436.2 399.7C465.3 399.3 494.7 418.7 523.8 422.8C553 427 582 416 611 419.3C640 422.7 669 440.3 698 451.8C727 463.3 756 468.7 785.2 469.2C814.3 469.7 843.7 465.3 872.8 451.5C902 437.7 931 414.3 945.5 402.7L960 391L960 541L945.5 541C931 541 902 541 872.8 541C843.7 541 814.3 541 785.2 541C756 541 727 541 698 541C669 541 640 541 611 541C582 541 553 541 523.8 541C494.7 541 465.3 541 436.2 541C407 541 378 541 349 541C320 541 291 541 262 541C233 541 204 541 174.8 541C145.7 541 116.3 541 87.2 541C58 541 29 541 14.5 541L0 541Z" fill="#d94d30"></path><path d="M0 474L14.5 461C29 448 58 422 87.2 409C116.3 396 145.7 396 174.8 403C204 410 233 424 262 428C291 432 320 426 349 428.8C378 431.7 407 443.3 436.2 453.8C465.3 464.3 494.7 473.7 523.8 470.7C553 467.7 582 452.3 611 447.7C640 443 669 449 698 451.7C727 454.3 756 453.7 785.2 454.8C814.3 456 843.7 459 872.8 456.8C902 454.7 931 447.3 945.5 443.7L960 440L960 541L945.5 541C931 541 902 541 872.8 541C843.7 541 814.3 541 785.2 541C756 541 727 541 698 541C669 541 640 541 611 541C582 541 553 541 523.8 541C494.7 541 465.3 541 436.2 541C407 541 378 541 349 541C320 541 291 541 262 541C233 541 204 541 174.8 541C145.7 541 116.3 541 87.2 541C58 541 29 541 14.5 541L0 541Z" fill="#d34236"></path><path d="M0 448L14.5 453.5C29 459 58 470 87.2 467.5C116.3 465 145.7 449 174.8 443.3C204 437.7 233 442.3 262 453.7C291 465 320 483 349 482.2C378 481.3 407 461.7 436.2 452.3C465.3 443 494.7 444 523.8 440.7C553 437.3 582 429.7 611 428.8C640 428 669 434 698 435.8C727 437.7 756 435.3 785.2 435.5C814.3 435.7 843.7 438.3 872.8 449.5C902 460.7 931 480.3 945.5 490.2L960 500L960 541L945.5 541C931 541 902 541 872.8 541C843.7 541 814.3 541 785.2 541C756 541 727 541 698 541C669 541 640 541 611 541C582 541 553 541 523.8 541C494.7 541 465.3 541 436.2 541C407 541 378 541 349 541C320 541 291 541 262 541C233 541 204 541 174.8 541C145.7 541 116.3 541 87.2 541C58 541 29 541 14.5 541L0 541Z" fill="#cb373b"></path><path d="M0 477L14.5 474.2C29 471.3 58 465.7 87.2 468.8C116.3 472 145.7 484 174.8 486.8C204 489.7 233 483.3 262 474.3C291 465.3 320 453.7 349 449.7C378 445.7 407 449.3 436.2 451.8C465.3 454.3 494.7 455.7 523.8 454.2C553 452.7 582 448.3 611 446.7C640 445 669 446 698 455.3C727 464.7 756 482.3 785.2 490.8C814.3 499.3 843.7 498.7 872.8 498.7C902 498.7 931 499.3 945.5 499.7L960 500L960 541L945.5 541C931 541 902 541 872.8 541C843.7 541 814.3 541 785.2 541C756 541 727 541 698 541C669 541 640 541 611 541C582 541 553 541 523.8 541C494.7 541 465.3 541 436.2 541C407 541 378 541 349 541C320 541 291 541 262 541C233 541 204 541 174.8 541C145.7 541 116.3 541 87.2 541C58 541 29 541 14.5 541L0 541Z" fill="#c22c3f"></path><path d="M0 486L14.5 485.7C29 485.3 58 484.7 87.2 489.2C116.3 493.7 145.7 503.3 174.8 508.3C204 513.3 233 513.7 262 507.5C291 501.3 320 488.7 349 486.5C378 484.3 407 492.7 436.2 495.2C465.3 497.7 494.7 494.3 523.8 494.5C553 494.7 582 498.3 611 496C640 493.7 669 485.3 698 480.3C727 475.3 756 473.7 785.2 474.7C814.3 475.7 843.7 479.3 872.8 482C902 484.7 931 486.3 945.5 487.2L960 488L960 541L945.5 541C931 541 902 541 872.8 541C843.7 541 814.3 541 785.2 541C756 541 727 541 698 541C669 541 640 541 611 541C582 541 553 541 523.8 541C494.7 541 465.3 541 436.2 541C407 541 378 541 349 541C320 541 291 541 262 541C233 541 204 541 174.8 541C145.7 541 116.3 541 87.2 541C58 541 29 541 14.5 541L0 541Z" fill="#b92343"></path><path d="M0 508L14.5 509.5C29 511 58 514 87.2 518.8C116.3 523.7 145.7 530.3 174.8 528.5C204 526.7 233 516.3 262 515.3C291 514.3 320 522.7 349 520.7C378 518.7 407 506.3 436.2 506C465.3 505.7 494.7 517.3 523.8 516.7C553 516 582 503 611 501.7C640 500.3 669 510.7 698 513.3C727 516 756 511 785.2 507.8C814.3 504.7 843.7 503.3 872.8 502.8C902 502.3 931 502.7 945.5 502.8L960 503L960 541L945.5 541C931 541 902 541 872.8 541C843.7 541 814.3 541 785.2 541C756 541 727 541 698 541C669 541 640 541 611 541C582 541 553 541 523.8 541C494.7 541 465.3 541 436.2 541C407 541 378 541 349 541C320 541 291 541 262 541C233 541 204 541 174.8 541C145.7 541 116.3 541 87.2 541C58 541 29 541 14.5 541L0 541Z" fill="#af1946"></path></svg>