<?xml version="1.0" encoding="UTF-8" standalone="no"?>
<svg
   xmlns:dc="http://purl.org/dc/elements/1.1/"
   xmlns:cc="http://creativecommons.org/ns#"
   xmlns:rdf="http://www.w3.org/1999/02/22-rdf-syntax-ns#"
   xmlns:svg="http://www.w3.org/2000/svg"
   xmlns="http://www.w3.org/2000/svg"
   xmlns:sodipodi="http://sodipodi.sourceforge.net/DTD/sodipodi-0.dtd"
   xmlns:inkscape="http://www.inkscape.org/namespaces/inkscape"
   width="327.36511mm"
   height="367.2561mm"
   viewBox="0 0 327.36511 367.2561"
   version="1.1"
   id="svg8"
   sodipodi:docname="logo.svg"
   inkscape:version="1.0.1 (3bc2e813f5, 2020-09-07)">
  <style></style>
  <defs
     id="defs2" />
  <sodipodi:namedview
     id="base"
     pagecolor="#ffffff"
     bordercolor="#666666"
     borderopacity="1.0"
     inkscape:pageopacity="0.0"
     inkscape:pageshadow="2"
     inkscape:zoom="0.39187386"
     inkscape:cx="432.00949"
     inkscape:cy="804.21428"
     inkscape:document-units="mm"
     inkscape:current-layer="layer1"
     inkscape:document-rotation="0"
     showgrid="false"
     inkscape:window-width="1920"
     inkscape:window-height="1057"
     inkscape:window-x="1592"
     inkscape:window-y="-8"
     inkscape:window-maximized="1" />
  <metadata
     id="metadata5">
    <rdf:RDF>
      <cc:Work
         rdf:about="">
        <dc:format>image/svg+xml</dc:format>
        <dc:type
           rdf:resource="http://purl.org/dc/dcmitype/StillImage" />
      </cc:Work>
    </rdf:RDF>
  </metadata>
  <g
     inkscape:label="Layer 1"
     inkscape:groupmode="layer"
     id="layer1"
     style="display:inline"
     transform="translate(102.72195,73.695783)"
     sodipodi:insensitive="true">
    <path
       style="fill:#5df4c9;stroke-width:0.264583"
       id="path522"
       d="m 46.185055,8.8216331 c 3.627858,39.3788849 9.011174,78.5614139 14.550779,117.7074169 6.757842,45.51639 13.760061,90.99824 21.244792,136.40113 1.232564,7.31251 2.539791,14.61199 3.83952,21.91275 2.440625,13.70922 21.828374,10.25765 19.387754,-3.45157 v 0 c -1.28502,-7.21805 -2.57768,-14.43482 -3.79694,-21.66437 C 93.950217,214.47173 86.971464,169.1376 80.234106,123.76939 74.780147,85.240883 69.50094,46.677675 65.857339,7.9274386 65.225048,-5.9829673 45.552764,-5.0887725 46.185055,8.8216331 Z" />
    <path
       style="fill:#5df4c9;stroke-width:0.264583"
       id="path526"
       d="m -7.1447003,160.18991 c 2.020607,-0.25518 4.0517669,-0.43744 6.0618212,-0.76554 18.8298591,-3.0736 37.5686741,-7.69024 55.6154141,-13.87018 10.494017,-3.59358 20.959032,-7.34577 31.093885,-11.85387 11.556228,-5.14035 22.59681,-11.36937 33.89521,-17.05405 10.86399,-7.06803 22.14504,-13.53304 32.59198,-21.204091 18.50752,-13.589836 36.67896,-29.778809 50.57045,-48.246096 10.40556,-13.833123 20.53264,-31.839831 21.86981,-49.728905 0.61366,-8.209824 -2.09963,-16.331038 -3.14944,-24.496556 -4.76711,-7.207342 -8.03378,-15.673178 -14.30134,-21.622022 -16.53521,-15.694356 -38.8435,-21.91589 -60.86485,-24.1271 -28.84075,-2.895957 -63.453654,1.436701 -91.340385,7.793807 -16.129195,3.676838 -31.722166,9.401297 -47.5832483,14.101948 -35.3448687,14.479542 -45.9277367,17.315042 -77.9675187,35.826732 -9.331862,5.391688 -18.043194,11.7923226 -27.064789,17.6884836 -11.644499,7.6357534 -0.845916,24.1035664 10.798587,16.4678144 v 0 c 8.454967,-5.563901 16.611865,-11.6095917 25.364898,-16.6917025 30.562031,-17.7446625 40.758204,-20.5124495 74.495747,-34.4197605 15.033582,-4.511193 29.812966,-9.977839 45.100741,-13.533583 26.072473,-6.064125 57.033758,-10.02503 84.040468,-7.984577 17.18128,1.29811 35.16101,5.447602 49.04243,16.388995 4.48827,3.537673 7.22889,8.853353 10.84333,13.28003 1.173,5.466969 3.6996,10.812433 3.51898,16.4009067 -0.48542,15.0191259 -8.93305,29.9862203 -17.4814,41.5270713 -12.78913,17.266176 -29.49446,32.195431 -46.65721,44.884556 -9.83797,7.273613 -20.46808,13.409777 -30.70211,20.114662 -10.683799,5.412937 -21.118733,11.347957 -32.051388,16.238797 -9.664146,4.32336 -19.647301,7.9202 -29.657515,11.36735 -18.521924,6.37827 -37.737449,11.02953 -57.1175774,13.8515 -13.9055226,0.73187 -12.8705016,20.39724 1.0350201,19.66538 z" />
  </g>
</svg>
