<svg width="50" height="50" viewBox="0 0 50 50" fill="none" xmlns="http://www.w3.org/2000/svg">
<path d="M24.9949 27.2625C15.6066 27.2625 7.73923 24.5044 5.59125 20.7861C5.2136 21.4405 4.99316 22.1206 4.99316 22.8264V28.9115C4.99316 33.6124 13.9508 37.4265 24.9949 37.4265C36.0458 37.4265 45.0068 33.6124 45.0068 28.9115V22.8264C45.0068 22.1206 44.783 21.4405 44.4019 20.7861C42.2539 24.5027 34.3934 27.2625 24.9949 27.2625Z" fill="#EBEBEB"/>
<path d="M24.9949 39.8325C15.6066 39.8325 7.73923 37.0711 5.59125 33.3595C5.2136 34.0106 4.99316 34.6907 4.99316 35.3947V41.485C4.99316 46.1876 13.9508 50 24.9949 50C36.0458 50 45.0068 46.1893 45.0068 41.485V35.3947C45.0068 34.6907 44.783 34.0106 44.4019 33.3612C42.2539 37.0711 34.3934 39.8325 24.9949 39.8325Z" fill="#EBEBEB"/>
<path d="M44.46 8.61586C44.067 12.0608 35.5195 14.8172 24.9949 14.8172C14.4754 14.8172 5.92789 12.0608 5.53657 8.61757C5.1931 9.24299 4.99316 9.89576 4.99316 10.5673V16.6524C4.99316 21.3551 13.9508 25.1675 24.9949 25.1675C36.0458 25.1675 45.0068 21.3568 45.0068 16.6524V10.5673C45.0068 9.89576 44.8035 9.24299 44.46 8.61586Z" fill="#EBEBEB"/>
<path d="M24.9949 12.8862C35.7656 12.8862 44.4925 10.0034 44.4925 6.44224C44.4925 2.88448 35.7656 0 24.9949 0C14.231 0.00170882 5.50069 2.88619 5.50069 6.44395C5.50069 10.0034 14.231 12.8862 24.9949 12.8862Z" fill="#EBEBEB"/>
</svg>
