<svg id="visual" viewBox="0 0 900 600" width="900" height="600" xmlns="http://www.w3.org/2000/svg" xmlns:xlink="http://www.w3.org/1999/xlink" version="1.1">
    <path d="M0 402L9.3 399.5C18.7 397 37.3 392 56.2 392.7C75 393.3 94 399.7 112.8 392.8C131.7 386 150.3 366 169 358.8C187.7 351.7 206.3 357.3 225 371.7C243.7 386 262.3 409 281.2 419.3C300 429.7 319 427.3 337.8 421.2C356.7 415 375.3 405 394 406.3C412.7 407.7 431.3 420.3 450 415C468.7 409.7 487.3 386.3 506.2 372.5C525 358.7 544 354.3 562.8 359.2C581.7 364 600.3 378 619 382.5C637.7 387 656.3 382 675 380C693.7 378 712.3 379 731.2 386.7C750 394.3 769 408.7 787.8 410.2C806.7 411.7 825.3 400.3 844 396C862.7 391.7 881.3 394.3 890.7 395.7L900 397L900 601L890.7 601C881.3 601 862.7 601 844 601C825.3 601 806.7 601 787.8 601C769 601 750 601 731.2 601C712.3 601 693.7 601 675 601C656.3 601 637.7 601 619 601C600.3 601 581.7 601 562.8 601C544 601 525 601 506.2 601C487.3 601 468.7 601 450 601C431.3 601 412.7 601 394 601C375.3 601 356.7 601 337.8 601C319 601 300 601 281.2 601C262.3 601 243.7 601 225 601C206.3 601 187.7 601 169 601C150.3 601 131.7 601 112.8 601C94 601 75 601 56.2 601C37.3 601 18.7 601 9.3 601L0 601Z" fill="#44a271"></path><path d="M0 409L9.3 416.2C18.7 423.3 37.3 437.7 56.2 435.5C75 433.3 94 414.7 112.8 410.5C131.7 406.3 150.3 416.7 169 419.7C187.7 422.7 206.3 418.3 225 419.8C243.7 421.3 262.3 428.7 281.2 434.5C300 440.3 319 444.7 337.8 437.3C356.7 430 375.3 411 394 401C412.7 391 431.3 390 450 399.7C468.7 409.3 487.3 429.7 506.2 436C525 442.3 544 434.7 562.8 424.7C581.7 414.7 600.3 402.3 619 395C637.7 387.7 656.3 385.3 675 390.2C693.7 395 712.3 407 731.2 406.3C750 405.7 769 392.3 787.8 399.3C806.7 406.3 825.3 433.7 844 433.8C862.7 434 881.3 407 890.7 393.5L900 380L900 601L890.7 601C881.3 601 862.7 601 844 601C825.3 601 806.7 601 787.8 601C769 601 750 601 731.2 601C712.3 601 693.7 601 675 601C656.3 601 637.7 601 619 601C600.3 601 581.7 601 562.8 601C544 601 525 601 506.2 601C487.3 601 468.7 601 450 601C431.3 601 412.7 601 394 601C375.3 601 356.7 601 337.8 601C319 601 300 601 281.2 601C262.3 601 243.7 601 225 601C206.3 601 187.7 601 169 601C150.3 601 131.7 601 112.8 601C94 601 75 601 56.2 601C37.3 601 18.7 601 9.3 601L0 601Z" fill="#3c9c6b"></path><path d="M0 444L9.3 438.8C18.7 433.7 37.3 423.3 56.2 423.2C75 423 94 433 112.8 434.3C131.7 435.7 150.3 428.3 169 424.2C187.7 420 206.3 419 225 429.8C243.7 440.7 262.3 463.3 281.2 467.7C300 472 319 458 337.8 450.3C356.7 442.7 375.3 441.3 394 446.2C412.7 451 431.3 462 450 468.2C468.7 474.3 487.3 475.7 506.2 468.3C525 461 544 445 562.8 441.8C581.7 438.7 600.3 448.3 619 451.3C637.7 454.3 656.3 450.7 675 453.3C693.7 456 712.3 465 731.2 461.5C750 458 769 442 787.8 434.7C806.7 427.3 825.3 428.7 844 433.7C862.7 438.7 881.3 447.3 890.7 451.7L900 456L900 601L890.7 601C881.3 601 862.7 601 844 601C825.3 601 806.7 601 787.8 601C769 601 750 601 731.2 601C712.3 601 693.7 601 675 601C656.3 601 637.7 601 619 601C600.3 601 581.7 601 562.8 601C544 601 525 601 506.2 601C487.3 601 468.7 601 450 601C431.3 601 412.7 601 394 601C375.3 601 356.7 601 337.8 601C319 601 300 601 281.2 601C262.3 601 243.7 601 225 601C206.3 601 187.7 601 169 601C150.3 601 131.7 601 112.8 601C94 601 75 601 56.2 601C37.3 601 18.7 601 9.3 601L0 601Z" fill="#349564"></path><path d="M0 480L9.3 478.8C18.7 477.7 37.3 475.3 56.2 474.7C75 474 94 475 112.8 474.3C131.7 473.7 150.3 471.3 169 475.2C187.7 479 206.3 489 225 491.7C243.7 494.3 262.3 489.7 281.2 488.5C300 487.3 319 489.7 337.8 493.7C356.7 497.7 375.3 503.3 394 503C412.7 502.7 431.3 496.3 450 489.2C468.7 482 487.3 474 506.2 466.7C525 459.3 544 452.7 562.8 452.2C581.7 451.7 600.3 457.3 619 465.2C637.7 473 656.3 483 675 483.2C693.7 483.3 712.3 473.7 731.2 469.2C750 464.7 769 465.3 787.8 472.8C806.7 480.3 825.3 494.7 844 501.5C862.7 508.3 881.3 507.7 890.7 507.3L900 507L900 601L890.7 601C881.3 601 862.7 601 844 601C825.3 601 806.7 601 787.8 601C769 601 750 601 731.2 601C712.3 601 693.7 601 675 601C656.3 601 637.7 601 619 601C600.3 601 581.7 601 562.8 601C544 601 525 601 506.2 601C487.3 601 468.7 601 450 601C431.3 601 412.7 601 394 601C375.3 601 356.7 601 337.8 601C319 601 300 601 281.2 601C262.3 601 243.7 601 225 601C206.3 601 187.7 601 169 601C150.3 601 131.7 601 112.8 601C94 601 75 601 56.2 601C37.3 601 18.7 601 9.3 601L0 601Z" fill="#2c8f5e"></path><path d="M0 520L9.3 513.2C18.7 506.3 37.3 492.7 56.2 486.8C75 481 94 483 112.8 483C131.7 483 150.3 481 169 480.5C187.7 480 206.3 481 225 482.3C243.7 483.7 262.3 485.3 281.2 487.3C300 489.3 319 491.7 337.8 498.2C356.7 504.7 375.3 515.3 394 518C412.7 520.7 431.3 515.3 450 508.5C468.7 501.7 487.3 493.3 506.2 489.2C525 485 544 485 562.8 492.7C581.7 500.3 600.3 515.7 619 519.7C637.7 523.7 656.3 516.3 675 515.7C693.7 515 712.3 521 731.2 519.5C750 518 769 509 787.8 503.2C806.7 497.3 825.3 494.7 844 491.8C862.7 489 881.3 486 890.7 484.5L900 483L900 601L890.7 601C881.3 601 862.7 601 844 601C825.3 601 806.7 601 787.8 601C769 601 750 601 731.2 601C712.3 601 693.7 601 675 601C656.3 601 637.7 601 619 601C600.3 601 581.7 601 562.8 601C544 601 525 601 506.2 601C487.3 601 468.7 601 450 601C431.3 601 412.7 601 394 601C375.3 601 356.7 601 337.8 601C319 601 300 601 281.2 601C262.3 601 243.7 601 225 601C206.3 601 187.7 601 169 601C150.3 601 131.7 601 112.8 601C94 601 75 601 56.2 601C37.3 601 18.7 601 9.3 601L0 601Z" fill="#238958"></path><path d="M0 530L9.3 533.3C18.7 536.7 37.3 543.3 56.2 544.2C75 545 94 540 112.8 535.2C131.7 530.3 150.3 525.7 169 524.3C187.7 523 206.3 525 225 524.8C243.7 524.7 262.3 522.3 281.2 522.5C300 522.7 319 525.3 337.8 524.7C356.7 524 375.3 520 394 523.2C412.7 526.3 431.3 536.7 450 536.2C468.7 535.7 487.3 524.3 506.2 522C525 519.7 544 526.3 562.8 526.3C581.7 526.3 600.3 519.7 619 518.8C637.7 518 656.3 523 675 530C693.7 537 712.3 546 731.2 543.7C750 541.3 769 527.7 787.8 524.3C806.7 521 825.3 528 844 527.7C862.7 527.3 881.3 519.7 890.7 515.8L900 512L900 601L890.7 601C881.3 601 862.7 601 844 601C825.3 601 806.7 601 787.8 601C769 601 750 601 731.2 601C712.3 601 693.7 601 675 601C656.3 601 637.7 601 619 601C600.3 601 581.7 601 562.8 601C544 601 525 601 506.2 601C487.3 601 468.7 601 450 601C431.3 601 412.7 601 394 601C375.3 601 356.7 601 337.8 601C319 601 300 601 281.2 601C262.3 601 243.7 601 225 601C206.3 601 187.7 601 169 601C150.3 601 131.7 601 112.8 601C94 601 75 601 56.2 601C37.3 601 18.7 601 9.3 601L0 601Z" fill="#188251"></path><path d="M0 554L9.3 552.5C18.7 551 37.3 548 56.2 550.2C75 552.3 94 559.7 112.8 561.7C131.7 563.7 150.3 560.3 169 561.7C187.7 563 206.3 569 225 567.3C243.7 565.7 262.3 556.3 281.2 556.5C300 556.7 319 566.3 337.8 571.2C356.7 576 375.3 576 394 574C412.7 572 431.3 568 450 566.5C468.7 565 487.3 566 506.2 564.5C525 563 544 559 562.8 557C581.7 555 600.3 555 619 554.8C637.7 554.7 656.3 554.3 675 552.7C693.7 551 712.3 548 731.2 552.3C750 556.7 769 568.3 787.8 572.3C806.7 576.3 825.3 572.7 844 568.7C862.7 564.7 881.3 560.3 890.7 558.2L900 556L900 601L890.7 601C881.3 601 862.7 601 844 601C825.3 601 806.7 601 787.8 601C769 601 750 601 731.2 601C712.3 601 693.7 601 675 601C656.3 601 637.7 601 619 601C600.3 601 581.7 601 562.8 601C544 601 525 601 506.2 601C487.3 601 468.7 601 450 601C431.3 601 412.7 601 394 601C375.3 601 356.7 601 337.8 601C319 601 300 601 281.2 601C262.3 601 243.7 601 225 601C206.3 601 187.7 601 169 601C150.3 601 131.7 601 112.8 601C94 601 75 601 56.2 601C37.3 601 18.7 601 9.3 601L0 601Z" fill="#097c4b"></path>
</svg>