<svg xmlns="http://www.w3.org/2000/svg" viewBox="0 0 30 30" class="crates-io-logo logo">
    <path d="M10 7L14.5 5L19.25 7L24 9V15V21L19.5 23L14.5 25L10 23L5 20.5V15L10 13V10.5V7Z" />
    <path d="M10 7L14.5 5L19.25 7M10 7L14.5 9M10 7V10.5M14.5 9L10 10.5M14.5 9L19 11M14.5 9L19.25 7M10 10.5L14.5 12.5M10 10.5V13M10 17L14.5 19M10 17V23M10 17L5 15M10 17V13M14.5 19V12.5M14.5 19L19.25 17M14.5 19V25M14.5 12.5L19 11M24 9V15M24 9L19.25 7M24 9L19.25 10.9M24 15V21L19.5 23M24 15L19.5 16.8947M19 11L19.25 10.9M19.25 10.9V17M19.25 17L19.5 16.8947M19.5 23V16.8947M19.5 23L14.5 25M14.5 25L10 23M10 23L5 20.5V15M5 15L10 13" stroke="black" stroke-width="0.25" stroke-linejoin="round"/>
</svg>