<svg xmlns="http://www.w3.org/2000/svg" viewBox="0 0 24 24" class="docs_rs_logo logo">
    <path id="Vector" d="M21.0859 11.5244L17.3125 10.1103V5.87207C17.3125 5.28613 16.9492 4.76269 16.3984 4.55566L12.4922 3.09082C12.1758 2.96973 11.8242 2.96973 11.5039 3.09082L7.59766 4.55566C7.04688 4.76269 6.68359 5.28613 6.68359 5.87207V10.1103L2.91016 11.5244C2.36328 11.7314 2 12.2549 2 12.8408V17.1416C2 17.6728 2.30078 18.1611 2.77734 18.3994L6.68359 20.3525C7.07813 20.5518 7.54688 20.5518 7.94141 20.3525L12 18.3213L16.0586 20.3525C16.4531 20.5518 16.9219 20.5518 17.3164 20.3525L21.2227 18.3994C21.6992 18.1611 22 17.6728 22 17.1416V12.8408C22 12.2549 21.6367 11.7314 21.0859 11.5244V11.5244ZM15.9844 10.1416L12.6641 11.3877V8.72363L15.9844 7.27832V10.1416ZM8.01562 5.81738L12 4.32519L15.9844 5.81738V5.84082L12 7.45801L8.01562 5.84082V5.81738ZM11.2969 17.1885L7.97656 18.8486V15.7588L11.2969 14.2432V17.1885ZM11.2969 12.8135L7.3125 14.4307L3.32812 12.8135V12.79L7.3125 11.2978L11.2969 12.79V12.8135ZM20.6719 17.1885L17.3516 18.8486V15.7588L20.6719 14.2432V17.1885ZM20.6719 12.8135L16.6875 14.4307L12.7031 12.8135V12.79L16.6875 11.2978L20.6719 12.79V12.8135Z" />
</svg>