<svg width="373" height="472" viewBox="0 0 373 472" fill="none" xmlns="http://www.w3.org/2000/svg">
<g id="Logo">
<path id="PLine" d="M200 94C201.161 204.888 209.358 315.532 207.444 426.5C207.229 438.995 206 451.512 206 464" stroke="#5DF8D2" stroke-width="15" stroke-linecap="round"/>
<path id="PTop" d="M124 352C154.972 339.825 183.751 324.267 211.889 306.444C251.57 281.311 290.196 253.166 321.111 217.444C341.341 194.069 362.9 163.488 364.778 131.333C366.731 97.8978 345.916 71.0831 320 52.4445C279.052 22.995 226.316 2.80037 175.222 8.77779C126.207 14.512 82.2366 41.7349 46.6667 74.4445C33.6997 86.3687 15.0946 103.546 8.88889 121.111C7.49735 125.05 8.50695 129.056 9 133" stroke="#5DF8D2" stroke-width="15" stroke-linecap="round"/>
</g>
</svg>
