<svg viewBox="0 0 24 24" xmlns="http://www.w3.org/2000/svg" class="website-logo logo" fill="white">
    <path d="M19.4766 16L18.7676 12.0039H18.4746L17.9941 10.4922H19.4766L20.2617 14.5234H20.3789L20.748 9.78906H22.2363L21.6855 16H19.4766ZM2.31445 16L1.76367 9.78906H3.25195L3.62109 14.5234H3.73828L4.52344 10.4922H6.00586L5.50195 12.0039H5.23242L4.47656 16H2.31445ZM6.02344 16L5.30273 12.0039H5.00977L4.52344 10.4922H6.00586L6.82031 14.5234H6.9375V16H6.02344ZM6.82031 16V14.5234H6.9375L7.83398 10.4922H9.32227L8.71875 12.0039H8.54297L7.69336 16H6.82031ZM9.35742 16L8.61328 12.0039H8.32031L7.83398 10.4922H9.32227L10.1602 14.5234H10.2773V16H9.35742ZM10.1602 16V14.5234H10.2773L11.2559 10.4922H12.7441L12.1406 12.0039H11.9648L11.0801 16H10.1602ZM12.9199 16L12.0352 12.0039H11.7422L11.2559 10.4922H12.7441L13.7227 14.5234H13.8398V16H12.9199ZM13.7227 16V14.5234H13.8398L14.6777 10.4922H16.166L15.5625 12.0039H15.3867L14.6426 16H13.7227ZM16.2598 16L15.457 12.0039H15.1641L14.6777 10.4922H16.166L17.0625 14.5234H17.1797V16H16.2598ZM17.0625 16V14.5234H17.1797L17.9941 10.4922H19.4766L18.873 12.0039H18.6973L17.9766 16H17.0625Z" fill="black"/>
</svg>