<svg xmlns="http://www.w3.org/2000/svg" viewBox="0 0 24 24" class="wikipedia-logo logo">
    <path id="W" d="M23.1328 4.10938V4.54297C22.7188 4.54297 22.3828 4.61719 22.125 4.76562C21.8672 4.91406 21.6211 5.19141 21.3867 5.59766C21.2305 5.87109 20.9844 6.52344 20.6484 7.55469L16.2188 20.3633H15.75L12.1289 10.2031L8.53125 20.3633H8.10938L3.38672 7.16797C3.03516 6.18359 2.8125 5.60156 2.71875 5.42188C2.5625 5.125 2.34766 4.90625 2.07422 4.76562C1.80859 4.61719 1.44531 4.54297 0.984375 4.54297V4.10938H6.86719V4.54297H6.58594C6.17188 4.54297 5.85547 4.63672 5.63672 4.82422C5.41797 5.01172 5.30859 5.23828 5.30859 5.50391C5.30859 5.77734 5.48047 6.40625 5.82422 7.39062L8.95312 16.3086L11.5898 8.72656L11.1211 7.39062L10.7461 6.32422C10.582 5.93359 10.3984 5.58984 10.1953 5.29297C10.0938 5.14453 9.96875 5.01953 9.82031 4.91797C9.625 4.77734 9.42969 4.67578 9.23438 4.61328C9.08594 4.56641 8.85156 4.54297 8.53125 4.54297V4.10938H14.7188V4.54297H14.2969C13.8594 4.54297 13.5391 4.63672 13.3359 4.82422C13.1328 5.01172 13.0312 5.26563 13.0312 5.58594C13.0312 5.98438 13.207 6.67969 13.5586 7.67188L16.6055 16.3086L19.6289 7.55469C19.9727 6.58594 20.1445 5.91406 20.1445 5.53906C20.1445 5.35938 20.0859 5.19141 19.9688 5.03516C19.8594 4.87891 19.7188 4.76953 19.5469 4.70703C19.25 4.59766 18.8633 4.54297 18.3867 4.54297V4.10938H23.1328Z" />
</svg>
