<svg xmlns="http://www.w3.org/2000/svg" viewBox="0 0 24 24" class="hacker-rank-logo logo">
    <path d="M11.9985 2.25C10.6688 2.25 4.1514 5.98793 3.49365 7.12793C2.83515 8.26868 2.83515 15.7373 3.49365 16.8735C4.1544 18.0128 10.6718 21.75 11.9985 21.75C13.3215 21.75 19.8389 18.015 20.5019 16.8765C21.1672 15.735 21.1672 8.26054 20.5019 7.12354V7.12207C19.8337 5.98432 13.317 2.25 11.9985 2.25ZM11.9971 3.75879C13.2698 4.02354 18.3133 6.91257 19.1968 7.88232C19.6018 9.11307 19.601 14.8832 19.1968 16.1162C18.3193 17.0845 13.2713 19.9772 11.9971 20.2412C10.7236 19.9787 5.67929 17.0874 4.80029 16.1177C4.39904 14.8817 4.39904 9.11682 4.80029 7.88232C5.67704 6.91257 10.7228 4.02129 11.9971 3.75879ZM9.74999 6.75L8.24999 8.25H8.99999V15.75H10.5V12.75H13.5V15.75H12.75L14.25 17.25L15.75 15.75H15V9H13.5V11.25H10.5V8.25H11.25L9.74999 6.75Z" />
</svg>