<svg width="50" height="50" viewBox="0 0 50 50" fill="none" xmlns="http://www.w3.org/2000/svg">
    <path id="Vector" d="M31.1492 0C31.1492 0.0882736 31.1492 0.176547 31.1492 0.269467C31.1492 1.78999 30.5452 3.24823 29.47 4.32341C28.3948 5.39858 26.9366 6.0026 25.4161 6.0026C23.8955 6.0026 22.4373 5.39858 21.3621 4.32341C20.287 3.24823 19.6829 1.78999 19.6829 0.269467C19.6829 0.176547 19.6829 0.0882736 19.6829 0H0.43V50H50.43V0H31.1492ZM24.2917 44.6478L21.8572 32.6008H21.8154L19.1812 44.6478H15.8268L12.0264 26.9467H15.3389L17.6062 38.9937H17.648L20.3798 26.9467H23.4787L25.9318 39.1424H25.9736L28.5614 26.9467H31.8136L27.5904 44.6478H24.2917ZM42.5318 44.6478L41.4029 40.708H35.4421L34.5733 44.6478H31.2607L35.5443 26.9467H40.771L45.9792 44.6478H42.5318Z" fill="#C4C4C4"/>
    <path id="Vector_2" d="M37.5374 31.3092L36.0925 37.8043H40.5898L38.9312 31.3092H37.5374Z" fill="#C4C4C4"/>
</svg>