<svg width="130" height="132" viewBox="0 0 130 132" fill="none" xmlns="http://www.w3.org/2000/svg">
<path d="M50.7516 33.6409C50.752 33.6494 50.7526 33.6578 50.7535 33.6663C52.1153 47.1489 54.1357 60.5617 56.213 73.9501L56.2136 73.9537C58.7479 89.5226 61.3739 105.081 64.1808 120.613L64.1812 120.615C64.6041 122.903 65.0503 125.187 65.4958 127.469C65.5379 127.684 65.5799 127.899 65.622 128.114C65.8776 129.424 66.5875 130.352 67.507 130.901C68.416 131.444 69.5036 131.602 70.5141 131.438C71.524 131.274 72.4929 130.782 73.1491 129.976C73.8146 129.158 74.1289 128.053 73.8733 126.742L73.3825 126.838L73.8733 126.742C73.8265 126.503 73.7798 126.264 73.7331 126.024C73.2977 123.795 72.8629 121.569 72.4507 119.339C69.6539 103.866 67.0377 88.3647 64.5119 72.851C62.4677 59.6791 60.4908 46.5058 59.1259 33.2717C59.0565 31.9479 58.485 30.9438 57.6501 30.2885C56.8229 29.6393 55.7649 29.3529 54.7407 29.3954C53.7166 29.4378 52.6892 29.8107 51.9274 30.5281C51.1553 31.2552 50.6853 32.3101 50.7516 33.6409Z" fill="#181926" stroke="#1E2030" stroke-linejoin="round"/>
<path d="M36.8621 85.8853C36.8698 85.8849 36.8775 85.8844 36.8852 85.8836C36.8886 85.8833 36.8919 85.883 36.8953 85.8826C37.1351 85.855 37.3809 85.8294 37.6299 85.8034C38.1436 85.7499 38.6705 85.695 39.1847 85.6184C46.2693 84.5638 53.3211 82.9792 60.1138 80.8574C64.0517 79.6274 67.992 78.3392 71.8119 76.7893C74.7145 75.6118 77.5419 74.2626 80.3535 72.921C81.7512 72.2541 83.1451 71.589 84.5423 70.9477C84.5583 70.9404 84.5738 70.9322 84.5889 70.9233C85.9299 70.1275 87.2965 69.3495 88.6677 68.5689C91.428 66.9975 94.2068 65.4155 96.8328 63.6567C103.795 58.9934 110.652 53.4254 115.902 47.0587C119.822 42.3058 123.701 36.0482 124.215 29.7735C124.336 28.2995 124.128 26.8488 123.851 25.4412C123.755 24.957 123.653 24.4829 123.552 24.014C123.354 23.0962 123.16 22.1985 123.031 21.2847C123.02 21.2039 122.989 21.1271 122.941 21.061C122.356 20.2543 121.84 19.414 121.314 18.5549C121.045 18.1162 120.773 17.6726 120.487 17.2261C119.655 15.9268 118.731 14.6462 117.501 13.5815C111.184 8.11298 102.695 5.96984 94.3969 5.20988C83.5148 4.21322 70.4829 5.70421 60.0002 7.88384C55.9499 8.72601 51.9735 9.88535 48.0192 11.0382C46.0526 11.6116 44.0915 12.1834 42.1296 12.7137C42.1145 12.7178 42.0996 12.7226 42.085 12.728C39.4807 13.7011 37.2337 14.5208 35.2125 15.2582C26.9596 18.2689 22.4705 19.9065 12.7916 25.0072C10.4439 26.2445 8.18769 27.6438 5.94899 29.0322C4.83815 29.7211 3.73163 30.4073 2.62039 31.0698L2.61977 31.0702C1.42623 31.784 0.75969 32.7376 0.562251 33.7528C0.366451 34.7596 0.644401 35.7648 1.22028 36.5659C2.37877 38.1773 4.76811 39.0044 7.18215 37.5605L7.18282 37.5601C8.2563 36.9158 9.30882 36.258 10.3569 35.603C12.436 34.3037 14.4976 33.0153 16.6705 31.8645C25.8403 27.0083 30.0885 25.4486 37.9579 22.5594C39.887 21.8512 42.0337 21.063 44.5239 20.1268C46.4159 19.6087 48.2872 19.0572 50.153 18.5073C53.878 17.4095 57.5814 16.318 61.3847 15.5112C71.1332 13.4431 82.6935 12.0964 92.759 12.79C99.1658 13.2316 105.797 14.6405 110.89 18.3024C111.676 18.8675 112.32 19.5824 112.948 20.366C113.148 20.6158 113.35 20.8772 113.555 21.1427C113.951 21.6564 114.359 22.1856 114.791 22.6769C114.94 23.2805 115.141 23.8929 115.335 24.4834C115.434 24.7872 115.532 25.0852 115.62 25.3732C115.899 26.2883 116.099 27.159 116.068 28.03C115.892 32.9948 112.817 38.0046 109.625 41.9351L110.013 42.2503L109.625 41.9351C104.872 47.7882 98.6517 52.8622 92.2386 57.1869L92.5181 57.6015L92.2385 57.187C89.7937 58.8357 87.2307 60.305 84.6493 61.7847C83.3573 62.5254 82.0608 63.2686 80.7722 64.0383C79.4307 64.6585 78.107 65.2949 76.7871 65.9293C74.1451 67.1995 71.5189 68.462 68.7987 69.5717L68.7986 69.5717C65.1951 71.0424 61.4682 72.2675 57.7174 73.4456C50.8066 75.6162 43.6363 77.1998 36.4045 78.1615C35.0001 78.2336 33.9244 78.7444 33.2116 79.5111C32.4985 80.2781 32.1784 81.27 32.2343 82.2394C32.2903 83.2088 32.7223 84.1614 33.5162 84.8528C34.3139 85.5475 35.447 85.9532 36.8621 85.8853Z" fill="#181926" stroke="#1E2030" stroke-linejoin="round"/>
<path d="M55.7516 29.2468C55.752 29.2553 55.7526 29.2637 55.7535 29.2722C57.1153 42.7548 59.1357 56.1677 61.213 69.556L61.2136 69.5597C63.7479 85.1285 66.3739 100.687 69.1808 116.219L69.1812 116.221C69.6041 118.509 70.0503 120.793 70.4958 123.075C70.5379 123.29 70.5799 123.505 70.622 123.72C70.8776 125.03 71.5875 125.957 72.507 126.507C73.416 127.05 74.5036 127.208 75.5141 127.044C76.524 126.88 77.4929 126.388 78.1491 125.581C78.8146 124.764 79.1289 123.659 78.8733 122.348L78.3825 122.444L78.8733 122.348C78.8265 122.109 78.7798 121.87 78.7331 121.63C78.2977 119.401 77.8629 117.175 77.4507 114.945C74.6539 99.4716 72.0377 83.9707 69.5119 68.4569C67.4677 55.285 65.4908 42.1117 64.1259 28.8777C64.0565 27.5538 63.485 26.5498 62.6501 25.8945C61.8229 25.2452 60.7649 24.9588 59.7407 25.0013C58.7166 25.0438 57.6892 25.4166 56.9274 26.134C56.1553 26.8611 55.6853 27.916 55.7516 29.2468Z" fill="#C6A0F6" stroke="#1E2030" stroke-linejoin="round"/>
<path d="M41.8621 81.4912C41.8698 81.4908 41.8775 81.4903 41.8852 81.4896C41.8886 81.4892 41.8919 81.4889 41.8953 81.4885C42.1351 81.4609 42.3809 81.4353 42.6299 81.4093C43.1436 81.3558 43.6705 81.3009 44.1847 81.2243C51.2693 80.1698 58.3211 78.5851 65.1138 76.4634C69.0517 75.2333 72.992 73.9451 76.8119 72.3952C79.7145 71.2177 82.5419 69.8686 85.3535 68.527C86.7512 67.86 88.1451 67.1949 89.5423 66.5536C89.5583 66.5463 89.5738 66.5382 89.5889 66.5292C90.9299 65.7334 92.2965 64.9554 93.6677 64.1748C96.428 62.6034 99.2068 61.0214 101.833 59.2626C108.795 54.5993 115.652 49.0313 120.902 42.6646C124.822 37.9117 128.701 31.6541 129.215 25.3794C129.336 23.9055 129.128 22.4547 128.851 21.0472C128.755 20.5629 128.653 20.0888 128.552 19.62C128.354 18.7021 128.16 17.8044 128.031 16.8907C128.02 16.8098 127.989 16.733 127.941 16.6669C127.356 15.8602 126.84 15.0199 126.314 14.1609C126.045 13.7221 125.773 13.2785 125.487 12.832C124.655 11.5327 123.731 10.2521 122.501 9.18745C116.184 3.7189 107.695 1.57577 99.3969 0.815805C88.5148 -0.180854 75.4829 1.31014 65.0002 3.48977C60.9499 4.33194 56.9735 5.49128 53.0192 6.64415C51.0526 7.21752 49.0915 7.78929 47.1296 8.31964C47.1145 8.32371 47.0996 8.32848 47.085 8.33394C44.4807 9.30706 42.2337 10.1268 40.2125 10.8641C31.9596 13.8748 27.4705 15.5125 17.7916 20.6132C15.4439 21.8504 13.1877 23.2497 10.949 24.6381C9.83815 25.327 8.73163 26.0133 7.62039 26.6757L7.61977 26.6761C6.42623 27.3899 5.75969 28.3436 5.56225 29.3587C5.36645 30.3655 5.6444 31.3708 6.22028 32.1718C7.37877 33.7832 9.76811 34.6104 12.1822 33.1665L12.1828 33.1661C13.2563 32.5217 14.3088 31.864 15.3569 31.2089C17.436 29.9096 19.4976 28.6212 21.6705 27.4705C30.8403 22.6143 35.0885 21.0546 42.9579 18.1654C44.887 17.4571 47.0337 16.669 49.5239 15.7328C51.4159 15.2146 53.2872 14.6631 55.153 14.1132C58.878 13.0154 62.5814 11.9239 66.3847 11.1171C76.1332 9.04902 87.6935 7.70234 97.759 8.39596C104.166 8.83752 110.797 10.2464 115.89 13.9083C116.676 14.4734 117.32 15.1883 117.948 15.9719C118.148 16.2218 118.35 16.4831 118.555 16.7486C118.951 17.2624 119.359 17.7915 119.791 18.2828C119.94 18.8864 120.141 19.4988 120.335 20.0893C120.434 20.3931 120.532 20.6912 120.62 20.9792C120.899 21.8942 121.099 22.7649 121.068 23.6359C120.892 28.6007 117.817 33.6105 114.625 37.541L115.013 37.8562L114.625 37.541C109.872 43.3941 103.652 48.4681 97.2386 52.7929L97.5181 53.2074L97.2385 52.7929C94.7937 54.4417 92.2307 55.9109 89.6493 57.3907C88.3573 58.1313 87.0608 58.8745 85.7722 59.6442C84.4307 60.2644 83.107 60.9008 81.7871 61.5353C79.1451 62.8054 76.5189 64.0679 73.7987 65.1776L73.7986 65.1777C70.1951 66.6483 66.4682 67.8734 62.7174 69.0516C55.8066 71.2221 48.6363 72.8057 41.4045 73.7674C40.0001 73.8395 38.9244 74.3504 38.2116 75.1171C37.4985 75.884 37.1784 76.8759 37.2343 77.8453C37.2903 78.8147 37.7223 79.7674 38.5162 80.4587C39.3139 81.1534 40.447 81.5592 41.8621 81.4912Z" fill="#C6A0F6" stroke="#1E2030" stroke-linejoin="round"/>
</svg>
