<svg width="50" height="50" viewBox="0 0 50 50" fill="none" xmlns="http://www.w3.org/2000/svg">
    <path d="M10.4167 12.5L13.5417 38.5417L5.18854 30.1885C3.95 28.95 3.61771 27.0677 4.35937 25.4802L10.4167 12.5Z" fill="#CBCBCB"/>
    <path d="M28.4573 6.58229C27.5771 5.70208 26.3844 5.20833 25.1406 5.20833C24.3646 5.20833 23.6 5.40104 22.9167 5.76875L10.4167 12.5V33.6906C10.4167 34.7958 10.8552 35.8552 11.6375 36.6365L13.5417 38.5417H36.4583V33.3333L43.75 21.875L28.4573 6.58229Z" fill="#DBDBDB"/>
    <path d="M10.4167 12.5H32.649C33.7542 12.5 34.8135 12.9385 35.5948 13.7208L43.75 21.875V38.5417H36.4583L10.4167 12.5Z" fill="#CBCBCB"/>
    <path d="M36.4583 38.5417H13.5417L19.7917 44.7917H36.4583V38.5417Z" fill="#EBEBEB"/>
</svg>
