<svg width="51" height="51" viewBox="0 0 51 51" fill="none" xmlns="http://www.w3.org/2000/svg">
<g id="go-logo">
<path id="o" d="M34.6001 33.137C32.6639 33.0765 30.9093 32.532 29.3967 31.2615C28.1261 30.1725 27.3395 28.781 27.0975 27.1476C26.7344 24.7276 27.4 22.6101 28.8521 20.7346C30.4252 18.6776 32.3009 17.6491 34.8421 17.1652C37.0203 16.8022 39.0774 16.9837 40.8926 18.2541C42.5867 19.4036 43.6153 20.9766 43.9178 23.0336C44.2808 25.9376 43.4338 28.2365 41.4976 30.233C40.106 31.685 38.3514 32.532 36.4152 32.9555C35.7497 33.0765 35.1446 33.0765 34.6001 33.137ZM39.6825 24.5461C39.6825 24.2436 39.6825 24.0621 39.622 23.8201C39.2589 21.7026 37.3228 20.4926 35.2656 20.9766C33.269 21.4001 31.9984 22.6706 31.5143 24.6671C31.1513 26.3006 31.9379 27.9945 33.4505 28.7205C34.6001 29.2045 35.8102 29.144 36.8992 28.5995C38.6539 27.7526 39.5615 26.3611 39.6825 24.5461Z" fill="#EBEBEB"/>
<path id="g" d="M4.29166 21.992C4.23117 21.992 4.17068 21.9316 4.23117 21.8711L4.65462 21.2666C4.71511 21.2061 4.7756 21.1457 4.89659 21.1457H12.5187C12.5792 21.1457 12.6397 21.2061 12.5792 21.2666L12.2162 21.8107C12.1557 21.8711 12.0952 21.9316 11.9742 21.9316L4.29166 21.992ZM1.08555 23.9265C1.02506 23.9265 0.964564 23.866 1.02506 23.8056L1.44851 23.201C1.509 23.1406 1.56949 23.0801 1.69048 23.0801H11.4298C11.4903 23.0801 11.5508 23.1406 11.5508 23.201L11.3693 23.8056C11.3693 23.866 11.2483 23.9265 11.1878 23.9265H1.08555ZM6.22743 25.9214C6.16694 25.9214 6.10644 25.8609 6.16694 25.8005L6.4694 25.2564C6.52989 25.196 6.59038 25.1355 6.71137 25.1355H10.9459C11.0064 25.1355 11.0668 25.196 11.0668 25.2564L11.0064 25.74C11.0064 25.8005 10.9459 25.8609 10.8854 25.8609L6.22743 25.9214ZM28.3678 21.5688L24.7987 22.4756C24.4962 22.5361 24.4357 22.5965 24.1938 22.2338C23.8913 21.8711 23.6493 21.6293 23.1654 21.4479C21.8345 20.783 20.5037 20.9643 19.2939 21.7502C17.842 22.657 17.1161 24.0474 17.1161 25.8005C17.1161 27.4931 18.326 28.8835 20.0198 29.1253C21.4716 29.3067 22.6814 28.8231 23.6493 27.7349C23.8308 27.4931 24.0123 27.2513 24.2543 26.9491H20.1407C19.7173 26.9491 19.5963 26.6468 19.7173 26.2841C20.0198 25.6191 20.5037 24.531 20.8062 23.9869C20.8667 23.866 21.0481 23.6242 21.3506 23.6242H29.0937C29.0332 24.2287 29.0332 24.7728 28.9727 25.3773C28.7307 26.8886 28.1863 28.3395 27.2184 29.5485C25.7061 31.5434 23.7098 32.8129 21.1691 33.1756C19.0519 33.4779 17.1161 33.0547 15.4223 31.7852C13.8495 30.5762 12.9421 29.0044 12.7001 27.07C12.3977 24.7728 13.1236 22.657 14.5149 20.8434C16.0272 18.8485 18.0235 17.579 20.5037 17.1559C22.5 16.7931 24.4357 17.035 26.1295 18.1835C27.2789 18.909 28.0653 19.9366 28.6097 21.2061C28.6702 21.4479 28.6097 21.5084 28.3678 21.5688Z" fill="#EBEBEB"/>
</g>
</svg>
